<svg xmlns="http://www.w3.org/2000/svg" viewBox="0 0 540.66 83.07"><defs><style>.cls-1{font-size:72px;stroke:#000;font-family:NasalizationRg-Regular, Nasalization;}.cls-1,.cls-4{fill:lime;}.cls-1,.cls-3{stroke-miterlimit:10;}.cls-2{letter-spacing:-0.04em;}.cls-3{fill:#2e3192;stroke:#1b1464;}.cls-5{fill:#662d91;}.cls-6{fill:#f15a24;}.cls-7{fill:#333;}.cls-8{fill:#fff;}</style></defs><g id="Layer_2" data-name="Layer 2"><g id="Layer_1-2" data-name="Layer 1"><text class="cls-1" transform="translate(37.08 60.8)">Space<tspan class="cls-2" x="239.18" y="0">R</tspan><tspan x="288" y="0">ocks</tspan></text><circle class="cls-3" cx="523.91" cy="40.82" r="16.25"/><path d="M529.86,22.8c0,.15,0,.29,0,.44a2,2,0,0,1-.09.6c-.06.17-.09.34-.15.5a1,1,0,0,1-.37.54c-.14.09-.26.24-.43.27a1.33,1.33,0,0,1-.28,0h-.22a.17.17,0,0,0-.06.06,1.25,1.25,0,0,0-.22.41c-.05.16-.13.32-.19.48a.07.07,0,0,0,0,.05c0,.18,0,.36,0,.54a1.82,1.82,0,0,1,0,.57c0,.14-.07.29-.09.44a.66.66,0,0,0,.06.46s0,0,0,0l0,0a1.23,1.23,0,0,1,0,.19c0,.14,0,.28,0,.42a.76.76,0,0,1-.17.5,1.07,1.07,0,0,1-.2.23.46.46,0,0,1-.18.1,3.74,3.74,0,0,1-.45.12,2.2,2.2,0,0,1-.36,0l-.27,0-.31,0h-.77l-.1,0-.08,0-.37,0-.64-.07-.53,0-.23-.05a1.86,1.86,0,0,0-.33,0c-.12,0-.24,0-.36,0l-.68,0c-.11,0-.21,0-.32,0l-.41.07c-.2,0-.4.08-.6.1a3.28,3.28,0,0,1-.7,0h-.23a3.09,3.09,0,0,1-.6-.08,2.33,2.33,0,0,1-.36-.08c-.13,0-.25-.11-.38-.16l-.25-.12a.17.17,0,0,1-.06-.06,1.06,1.06,0,0,1,0-.47v0a.83.83,0,0,1,.14-.46.5.5,0,0,0,0-.12c0-.13,0-.26,0-.39a.9.9,0,0,0-.08-.21.94.94,0,0,1-.14-.51c0-.08,0-.15,0-.22a2.16,2.16,0,0,1,0-.36c0-.1,0-.21,0-.31a.67.67,0,0,0,0-.2,2.46,2.46,0,0,0-.07-.29,3.26,3.26,0,0,0-.15-.44,2.26,2.26,0,0,0-.13-.2l0,0h-.06l-.13,0a.6.6,0,0,1-.54-.19,3.31,3.31,0,0,1-.25-.3.76.76,0,0,1-.11-.32.37.37,0,0,0-.1-.21,1.13,1.13,0,0,1-.19-.49,1.57,1.57,0,0,1-.05-.3,3.66,3.66,0,0,1,.05-.57,3.77,3.77,0,0,1,.1-.43c0-.13.11-.26.16-.39s0-.1,0-.15a2.51,2.51,0,0,1,.36-.64L517,21a1.15,1.15,0,0,1,.14-.17h0a.76.76,0,0,0-.08.11,4.17,4.17,0,0,0-.43.69c-.09.2-.17.39-.25.59s-.14.43-.2.65a2.11,2.11,0,0,0,0,.25,1.58,1.58,0,0,0,0,.57c0,.13.07.27.12.4a.28.28,0,0,0,.25.16l.64,0h.11c.09.28.1.58.17.87a.32.32,0,0,1,.23.21,1.57,1.57,0,0,1,.09.23,1,1,0,0,1,.09.28,1.6,1.6,0,0,1,0,.49,3.13,3.13,0,0,0,0,.61c0,.15,0,.3,0,.45s0,0,0,0,.08.24.15.35a.53.53,0,0,1,0,.35,1.48,1.48,0,0,0,0,.21h0l.34.26.07,0a1.62,1.62,0,0,1,.41.17.92.92,0,0,0,.25.08c.11,0,.23,0,.34,0a3.81,3.81,0,0,1,.44.15l.45.17.27.13.26.17.17.16a.07.07,0,0,0,0,0c.14,0,.28-.06.42-.07l.47,0h.27a5.08,5.08,0,0,1,.78,0,2.82,2.82,0,0,1,.31.07l.31,0,.65.05.24,0,.44,0h.05l.27,0H526l.47,0,.33,0,.21,0,.5-.17,0,0c.09-.12.18-.25.28-.37a.51.51,0,0,0,.07-.4c0-.11,0-.21,0-.32a1,1,0,0,0,0-.17c0-.05-.06,0-.09,0l-.17.12-.55.34-.17.1a3.75,3.75,0,0,1-.41.19l-.58.19a1.38,1.38,0,0,0-.33.2c-.13.1-.23.21-.35.32l-.07.09a1,1,0,0,1,.3-.36c0-.05.12-.09.18-.14a1.43,1.43,0,0,1,.45-.21l.45-.15.5-.25a3,3,0,0,0,.57-.36l.22-.13a.39.39,0,0,1-.06-.11.7.7,0,0,1,0-.43c0-.15,0-.3.08-.44a1.83,1.83,0,0,0,0-.66,1.48,1.48,0,0,1,0-.42,1.39,1.39,0,0,1,.1-.33.88.88,0,0,1,.09-.2l.24-.48s0,0,.06,0,0,0,0,0,.18-.05.16-.23a2.13,2.13,0,0,0,0-.25c0-.14,0-.24.1-.27a.85.85,0,0,1,.23,0l.31,0,.29,0a1.17,1.17,0,0,0,.2-.06s0,0,0,0a3,3,0,0,0,.1-.32c0-.1,0-.2.07-.3a1.84,1.84,0,0,0,0-.33c0-.17,0-.34,0-.51a2.11,2.11,0,0,0,0-.25,1.17,1.17,0,0,0,0-.2l-.26-.66a2,2,0,0,0-.11-.2c-.08-.13-.16-.27-.25-.4l-.25-.32-.09-.11-.38-.43-.43-.45-.16-.14-.43-.43-.17.15a.26.26,0,0,1-.37,0,4.11,4.11,0,0,1-.3-.29c-.11-.13-.2-.28-.29-.41l-.09-.15c-.06-.14-.13-.28-.2-.43a1.59,1.59,0,0,1-.14-.57,2.28,2.28,0,0,1,0-.45.11.11,0,0,1,.06-.07s0-.06,0-.11-.2-.31-.3-.46,0-.22,0-.33a.19.19,0,0,0,0-.07.9.9,0,0,0-.07-.37.35.35,0,0,0-.39-.24l-.31.05c-.06,0-.1,0-.1-.07a.59.59,0,0,0-.07-.26,1.36,1.36,0,0,0-.22-.39.45.45,0,0,0-.37-.17.34.34,0,0,0-.26.15.67.67,0,0,1-.14.15c-.07.06-.11,0-.14,0s-.09-.18-.13-.27a1.28,1.28,0,0,0-.26-.35.34.34,0,0,0-.28-.09.62.62,0,0,0-.48.39.63.63,0,0,1-.15.18s-.09,0-.13,0l-.22-.19a1.44,1.44,0,0,0-.25-.18.4.4,0,0,0-.16,0h0v0h0a.38.38,0,0,1,.18,0,2.37,2.37,0,0,1,.33.22l.21.18s.07,0,.09,0a.61.61,0,0,0,.12-.16.84.84,0,0,1,.22-.3A.58.58,0,0,1,523,14a.38.38,0,0,1,.2.1,1.16,1.16,0,0,1,.32.44l.09.2c0,.06,0,.07.1,0a2.5,2.5,0,0,1,.22-.24.38.38,0,0,1,.36,0l.11.06a.79.79,0,0,1,.31.43c0,.11.07.24.11.36l0,0a.57.57,0,0,0,.18,0,.53.53,0,0,1,.39,0,.21.21,0,0,1,.14.15,2.47,2.47,0,0,1,.1.29c.05.15,0,.29,0,.44a.15.15,0,0,0,0,.09c.05.1.12.19.18.29l.18.27.27-.17a3.15,3.15,0,0,0,.54-.49,3.87,3.87,0,0,0,.67-.84,2.94,2.94,0,0,1,.35-.44.51.51,0,0,1,.33-.15.22.22,0,0,1,.15.06,1.08,1.08,0,0,1,.3.46c0,.08.07.14.09.22s0,.23,0,.34a1.93,1.93,0,0,1,0,.24c0,.2,0,.41,0,.61a2.3,2.3,0,0,1-.1.35l0,0c0,.1-.07.2-.1.31a2.35,2.35,0,0,1-.29.57c-.12.2-.26.39-.4.58l-.24.35,0,.07c-.1.14-.1.14,0,.26l.55.53c.22.23.44.47.65.71a2.55,2.55,0,0,1,.26.3c.1.13.18.27.27.4a3.13,3.13,0,0,1,.21.34,3.46,3.46,0,0,1,.25.6l.06.18A1.26,1.26,0,0,1,529.86,22.8Zm-.24,1.52c-.12,0-.24.05-.36.06l-.58.05a.15.15,0,0,0-.15.17.5.5,0,0,1,0,.12,2,2,0,0,1,0,.25,1.1,1.1,0,0,1,0,.18A1.18,1.18,0,0,0,529.62,24.32ZM528.73,16v-.33h0a.25.25,0,0,0,0-.08c0-.09-.07-.17-.1-.26a1.18,1.18,0,0,0-.33-.49.2.2,0,0,0-.11,0,.58.58,0,0,0-.32.16,3.76,3.76,0,0,0-.45.6l-.26.36-.11.12c-.1.1-.21.19-.3.3a2.22,2.22,0,0,1-.46.41.93.93,0,0,1-.2.1c-.07,0-.15.05-.17.14a1,1,0,0,0,0,.17,1.34,1.34,0,0,0,.07.63,5.44,5.44,0,0,0,.28.66,2.23,2.23,0,0,0,.49.65l.22.18c.07.05.19.07.24,0s.23-.22.33-.34.2-.3.3-.44l.4-.6.08-.16a2.37,2.37,0,0,0,.26-.56,2,2,0,0,0,.15-.63h0C528.7,16.41,528.72,16.23,528.73,16ZM521.18,29.8s-.09-.1-.14-.14-.17-.09-.25-.15a.83.83,0,0,0-.32-.17,2.86,2.86,0,0,1-.41-.15,2.18,2.18,0,0,0-.51-.17c-.1,0-.21,0-.31-.05a.78.78,0,0,1-.23-.08,1.11,1.11,0,0,0-.34-.14.89.89,0,0,1-.35-.21c-.13-.12-.12-.12-.2,0a1,1,0,0,0-.1.49c0,.09,0,.17,0,.26a.14.14,0,0,0,.09.14c.13.06.28.11.41.18a2.22,2.22,0,0,0,.68.19,2.7,2.7,0,0,0,.41.05h.26a4,4,0,0,0,.49,0c.17,0,.34-.05.5-.07Zm-3.7-4.61a.62.62,0,0,0,0-.13c0-.08,0-.15,0-.23s0-.22,0-.32,0-.13-.06-.15-.11,0-.17,0l-.37,0-.27,0s0,.06,0,.09a.83.83,0,0,0,.08.28,2,2,0,0,0,.29.36.59.59,0,0,0,.49.17Z"/><path class="cls-4" d="M529.86,23.27a1.84,1.84,0,0,1,0,.33c0,.1-.05.2-.07.3a3,3,0,0,1-.1.32s0,0,0,0a1.17,1.17,0,0,1-.2.06l-.29,0-.31,0a.85.85,0,0,0-.23,0c-.09,0-.13.13-.1.27a2.13,2.13,0,0,1,0,.25c0,.18,0,.22-.16.23s0,0,0,0-.05,0-.06,0l-.24.48a.88.88,0,0,0-.09.2,1.39,1.39,0,0,0-.1.33,1.48,1.48,0,0,0,0,.42,1.83,1.83,0,0,1,0,.66c0,.14-.05.29-.08.44a.7.7,0,0,0,0,.43.39.39,0,0,0,.06.11l-.22.13a3,3,0,0,1-.57.36l-.5.25-.45.15a1.43,1.43,0,0,0-.45.21c-.06.05-.13.09-.18.14a1,1,0,0,0-.3.36v0h-.05l-.44,0-.24,0-.65-.05-.31,0a2.82,2.82,0,0,0-.31-.07,5.08,5.08,0,0,0-.78,0h-.27l-.47,0c-.14,0-.28.05-.42.07a.07.07,0,0,1,0,0l-.17-.16-.26-.17-.27-.13-.45-.17a3.81,3.81,0,0,0-.44-.15c-.11,0-.23,0-.34,0a.92.92,0,0,1-.25-.08,1.62,1.62,0,0,0-.41-.17l-.07,0-.34-.26h0a1.48,1.48,0,0,1,0-.21.53.53,0,0,0,0-.35c-.07-.11-.06-.25-.15-.35s0,0,0,0,0-.3,0-.45a3.13,3.13,0,0,1,0-.61,1.6,1.6,0,0,0,0-.49,1,1,0,0,0-.09-.28,1.57,1.57,0,0,0-.09-.23.32.32,0,0,0-.23-.21c-.07-.29-.08-.59-.17-.87h-.11l-.64,0a.28.28,0,0,1-.25-.16c-.05-.13-.08-.27-.12-.4a1.58,1.58,0,0,1,0-.57,2.11,2.11,0,0,1,0-.25c.06-.22.13-.44.2-.65s.16-.39.25-.59a4.17,4.17,0,0,1,.43-.69.76.76,0,0,1,.08-.11c.1-.12.21-.23.32-.35L518,20a.23.23,0,0,0,.07-.1.94.94,0,0,0,.1-.23c0-.14.08-.27.11-.41s0-.07.06-.08l.43-.2a.81.81,0,0,0,.3-.28l.15-.27a1.27,1.27,0,0,0,.13-.19c.07-.18.14-.36.2-.55s0-.24.07-.36a.62.62,0,0,0-.06-.44.15.15,0,0,1,0-.09,2.39,2.39,0,0,1,.13-.21c.08-.1.17-.2.25-.31a1,1,0,0,0,.17-.25,1.79,1.79,0,0,0,.09-.4.59.59,0,0,1,.34-.48.34.34,0,0,1,.36,0,.09.09,0,0,0,.15,0,.78.78,0,0,0,0-.21,1.63,1.63,0,0,1,.08-.44.66.66,0,0,1,.18-.23l.12-.07h0v0h0a.4.4,0,0,1,.16,0,1.44,1.44,0,0,1,.25.18l.22.19s.09.06.13,0a.63.63,0,0,0,.15-.18.62.62,0,0,1,.48-.39.34.34,0,0,1,.28.09,1.28,1.28,0,0,1,.26.35c0,.09.1.18.13.27s.07.1.14,0a.67.67,0,0,0,.14-.15.34.34,0,0,1,.26-.15.45.45,0,0,1,.37.17,1.36,1.36,0,0,1,.22.39.59.59,0,0,1,.07.26c0,.08,0,.08.1.07l.31-.05a.35.35,0,0,1,.39.24.9.9,0,0,1,.07.37.19.19,0,0,1,0,.07c0,.11-.07.22,0,.33s.19.31.3.46,0,.07,0,.11a.11.11,0,0,0-.06.07,2.28,2.28,0,0,0,0,.45A1.59,1.59,0,0,0,526,18c.07.15.14.29.2.43l.09.15c.09.13.18.28.29.41a4.11,4.11,0,0,0,.3.29.26.26,0,0,0,.37,0l.17-.15.43.43.16.14.43.45.38.43.09.11.25.32c.09.13.17.27.25.4a2,2,0,0,1,.11.2l.26.66a1.17,1.17,0,0,1,0,.2,2.11,2.11,0,0,1,0,.25C529.83,22.93,529.86,23.1,529.86,23.27Zm-4.67-.54c.15,0,.23-.07.23-.21s-.11-.21-.17-.2-.24.07-.24.17S525.06,22.73,525.19,22.73Zm.09-1a.2.2,0,0,0-.16-.21c-.14,0-.2.06-.19.2v0a.2.2,0,0,0,.13.19.14.14,0,0,0,.15-.07A.35.35,0,0,0,525.28,21.76ZM525,23.22a.57.57,0,0,0,0-.34.34.34,0,0,0-.08-.17.32.32,0,0,0-.19-.07,1,1,0,0,0-.3,0l-.42.12-.15.07-.64.13-.47.09-.21,0H522a1.91,1.91,0,0,1-.63-.13l-.22-.09-.34-.14a1.79,1.79,0,0,0-.32-.13.9.9,0,0,0-.16,0,.38.38,0,0,0-.24.1A.88.88,0,0,0,520,23a.21.21,0,0,1,0,.08,1.29,1.29,0,0,0,0,.48,1.57,1.57,0,0,0,.32.56l.13.12a1.55,1.55,0,0,0,.23.21,1.49,1.49,0,0,0,.3.18,2.63,2.63,0,0,0,.42.17c.12,0,.25,0,.38.06a3.64,3.64,0,0,0,.74,0,2.7,2.7,0,0,0,.28,0l.3,0s0,0,.06,0a1.17,1.17,0,0,1,.2-.06l.24-.1c.14-.07.28-.13.42-.21a3.88,3.88,0,0,0,.33-.23.81.81,0,0,0,.19-.18c0-.06.14-.08.15-.18a.4.4,0,0,1,.1-.18A1,1,0,0,0,525,23.22Zm-.27-1v0c0-.06,0-.14-.09-.16a.19.19,0,0,0-.2,0c-.06,0,0,.1,0,.15a.17.17,0,0,0,.19.19C524.6,22.41,524.68,22.31,524.68,22.22Zm-.34-1.32a3.64,3.64,0,0,0,0-.66,2.18,2.18,0,0,0-.19-.75,2.85,2.85,0,0,0-.23-.37,1.3,1.3,0,0,0-.15-.18s0-.09-.09-.11l-.35-.2a1.32,1.32,0,0,0-.29-.15,1.72,1.72,0,0,0-.6-.1h-.27l-.24,0a1.52,1.52,0,0,0-.45.16.88.88,0,0,0-.15.12,3.31,3.31,0,0,0-.4.44c-.13.22-.23.46-.34.69s-.08.21-.11.31a1.85,1.85,0,0,0-.07.74c0,.1.05.2.07.31a1.12,1.12,0,0,0,.18.42l.24.35a1.29,1.29,0,0,0,.37.4.91.91,0,0,0,.17.09.94.94,0,0,0,.42.19,3.92,3.92,0,0,0,.59.05,2.63,2.63,0,0,0,.48-.06,1.29,1.29,0,0,0,.69-.34,4,4,0,0,0,.44-.48,1.66,1.66,0,0,0,.2-.43A2,2,0,0,0,524.34,20.9Zm-4.18,1.29c.09,0,.12-.11.13-.23l-.08-.12a.15.15,0,0,0-.19-.06.19.19,0,0,0-.11.21.62.62,0,0,0,.1.16A.21.21,0,0,0,520.16,22.19Zm-.36-.46a.24.24,0,0,0,.08-.22c0-.23-.16-.35-.35-.3a.23.23,0,0,0-.15.25.55.55,0,0,0,.13.25A.26.26,0,0,0,519.8,21.73Zm-.11.49a.24.24,0,0,0-.12-.22.19.19,0,0,0-.21.05.22.22,0,0,0-.06.24.34.34,0,0,0,.21.18l.12-.07A.21.21,0,0,0,519.69,22.22Z"/><path class="cls-5" d="M529.26,24.38c.12,0,.24,0,.36-.06a1.18,1.18,0,0,1-1.07.83,1.1,1.1,0,0,0,0-.18,2,2,0,0,0,0-.25.5.5,0,0,0,0-.12.15.15,0,0,1,.15-.17Z"/><path class="cls-5" d="M528.73,15.71V16c0,.19,0,.37,0,.56h0a2,2,0,0,1-.15.63,2.37,2.37,0,0,1-.26.56l-.08.16-.4.6c-.1.14-.19.3-.3.44s-.22.23-.33.34-.17,0-.24,0l-.22-.18a2.23,2.23,0,0,1-.49-.65,5.44,5.44,0,0,1-.28-.66,1.34,1.34,0,0,1-.07-.63,1,1,0,0,1,0-.17c0-.09.1-.1.17-.14a.93.93,0,0,0,.2-.1,2.22,2.22,0,0,0,.46-.41c.09-.11.2-.2.3-.3l.11-.12.26-.36a3.76,3.76,0,0,1,.45-.6.58.58,0,0,1,.32-.16.2.2,0,0,1,.11,0,1.18,1.18,0,0,1,.33.49c0,.09.07.17.1.26a.25.25,0,0,1,0,.08Z"/><path class="cls-5" d="M527.93,28.83a.51.51,0,0,1-.07.4c-.1.12-.19.25-.28.37l0,0-.5.17-.21,0-.33,0-.47,0h-.58l-.27,0v0l.07-.09c.12-.11.22-.22.35-.32a1.38,1.38,0,0,1,.33-.2l.58-.19a3.75,3.75,0,0,0,.41-.19l.17-.1.55-.34.17-.12s.08,0,.09,0a1,1,0,0,1,0,.17C527.93,28.62,527.93,28.72,527.93,28.83Z"/><path d="M525.42,22.52c0,.14-.08.21-.23.21s-.18-.06-.18-.24.09-.16.24-.17S525.42,22.44,525.42,22.52Zm0,0a.22.22,0,0,0-.14-.18c-.11,0-.19.06-.19.14s.05.21.16.2A.18.18,0,0,0,525.38,22.54Z"/><path class="cls-6" d="M525.24,22.36a.22.22,0,0,1,.14.18.18.18,0,0,1-.17.16c-.11,0-.16-.05-.16-.2S525.13,22.36,525.24,22.36Z"/><path d="M525.12,21.55a.2.2,0,0,1,.16.21.35.35,0,0,1-.06.14.14.14,0,0,1-.15.07.2.2,0,0,1-.13-.19v0C524.92,21.61,525,21.57,525.12,21.55Zm.09.31a.14.14,0,0,0,0-.18.36.36,0,0,0-.08-.09c-.12,0-.19,0-.17.15v0a.18.18,0,0,0,.1.17C525.14,22,525.18,21.9,525.21,21.86Z"/><path class="cls-6" d="M525.22,21.68a.14.14,0,0,1,0,.18s-.07.1-.14.07a.18.18,0,0,1-.1-.17v0c0-.12,0-.14.17-.15A.36.36,0,0,1,525.22,21.68Z"/><path d="M524.92,22.88a.57.57,0,0,1,0,.34,1,1,0,0,1-.15.44.4.4,0,0,0-.1.18c0,.1-.11.12-.15.18a.81.81,0,0,1-.19.18,3.88,3.88,0,0,1-.33.23c-.14.08-.28.14-.42.21l-.24.1a1.17,1.17,0,0,0-.2.06s0,0-.06,0l-.3,0a2.7,2.7,0,0,1-.28,0,3.64,3.64,0,0,1-.74,0c-.13,0-.26,0-.38-.06a2.63,2.63,0,0,1-.42-.17,1.49,1.49,0,0,1-.3-.18,1.55,1.55,0,0,1-.23-.21l-.13-.12a1.57,1.57,0,0,1-.32-.56,1.29,1.29,0,0,1,0-.48.21.21,0,0,0,0-.08.88.88,0,0,1,.06-.36.38.38,0,0,1,.24-.1.9.9,0,0,1,.16,0,1.79,1.79,0,0,1,.32.13l.34.14.22.09a1.91,1.91,0,0,0,.63.13h.51l.21,0,.47-.09.64-.13.15-.07.42-.12a1,1,0,0,1,.3,0,.32.32,0,0,1,.19.07A.34.34,0,0,1,524.92,22.88Zm0,.41a.63.63,0,0,0,0-.36.33.33,0,0,0-.26-.26.45.45,0,0,0-.2,0,4.25,4.25,0,0,0-.51.14,2.41,2.41,0,0,1-.54.16l-.76.13a3.13,3.13,0,0,1-.44,0l-.37,0h-.12l-.51-.16-.27-.11-.36-.17a1,1,0,0,0-.28-.07.26.26,0,0,0-.18.06.57.57,0,0,0-.08.25,3,3,0,0,0,0,.42h0a2,2,0,0,0,.11.4,1.92,1.92,0,0,0,.23.35,2.35,2.35,0,0,0,.43.4,2.16,2.16,0,0,0,.61.3,1.84,1.84,0,0,0,.4.06,4.7,4.7,0,0,0,.53,0l.34,0a1.37,1.37,0,0,0,.29,0,2,2,0,0,0,.35-.09c.17-.07.34-.13.51-.21a3.87,3.87,0,0,0,.43-.27,2,2,0,0,0,.46-.45A1.44,1.44,0,0,0,524.9,23.29Z"/><path class="cls-7" d="M524.9,22.93a.63.63,0,0,1,0,.36,1.44,1.44,0,0,1-.22.51,2,2,0,0,1-.46.45,3.87,3.87,0,0,1-.43.27c-.17.08-.34.14-.51.21a2,2,0,0,1-.35.09,1.37,1.37,0,0,1-.29,0l-.34,0a4.7,4.7,0,0,1-.53,0,1.84,1.84,0,0,1-.4-.06,2.16,2.16,0,0,1-.61-.3,2.35,2.35,0,0,1-.43-.4,1.92,1.92,0,0,1-.23-.35,2,2,0,0,1-.11-.4h0a3,3,0,0,1,0-.42.57.57,0,0,1,.08-.25.26.26,0,0,1,.18-.06,1,1,0,0,1,.28.07l.36.17.27.11.51.16h.12l.37,0a3.13,3.13,0,0,0,.44,0l.76-.13a2.41,2.41,0,0,0,.54-.16,4.25,4.25,0,0,1,.51-.14.45.45,0,0,1,.2,0A.33.33,0,0,1,524.9,22.93Zm-.67,1.14s0,0,0,0l-.07,0-.2,0,0,.32,0,0Zm-1.16-.22a.78.78,0,0,0,.29-.62l-.88,0A2.4,2.4,0,0,0,523.07,23.85Zm-.28.85a1.19,1.19,0,0,0-.4-.34c-.13.09-.13.24-.19.38A1.08,1.08,0,0,0,522.79,24.7Zm-1.32-.09a.11.11,0,0,0,0-.08c-.07-.14-.13-.29-.21-.42s-.08-.07-.12-.1l-.06,0a2.5,2.5,0,0,0-.24.22c-.06.06-.05.1,0,.15l.06,0,.46.18A.09.09,0,0,0,521.47,24.61Zm-.17-1.32s0-.06,0-.08a.34.34,0,0,1-.14-.09,1.65,1.65,0,0,0-.46-.23h0c-.09,0-.09,0-.07.08s0,.2.07.3a.72.72,0,0,0,.19.34s.06,0,.08,0l.22-.16C521.2,23.4,521.25,23.34,521.3,23.29Z"/><path d="M524.68,22.2v0c0,.09-.08.19-.14.19a.17.17,0,0,1-.19-.19s0-.11,0-.15a.19.19,0,0,1,.2,0S524.65,22.14,524.68,22.2Zm0,0a.17.17,0,0,0-.13-.17c-.1,0-.13,0-.13.13s.05.19.14.19S524.65,22.3,524.65,22.23Z"/><path class="cls-6" d="M524.52,22.06a.17.17,0,0,1,.13.17c0,.07-.07.15-.12.15s-.14-.07-.14-.19S524.42,22.06,524.52,22.06Z"/><path d="M524.35,20.24a3.64,3.64,0,0,1,0,.66,2,2,0,0,1-.07.48,1.66,1.66,0,0,1-.2.43,4,4,0,0,1-.44.48,1.29,1.29,0,0,1-.69.34,2.63,2.63,0,0,1-.48.06,3.92,3.92,0,0,1-.59-.05.94.94,0,0,1-.42-.19.91.91,0,0,1-.17-.09,1.29,1.29,0,0,1-.37-.4l-.24-.35a1.12,1.12,0,0,1-.18-.42c0-.11-.06-.21-.07-.31a1.85,1.85,0,0,1,.07-.74c0-.1.07-.21.11-.31s.21-.47.34-.69a3.31,3.31,0,0,1,.4-.44.88.88,0,0,1,.15-.12,1.52,1.52,0,0,1,.45-.16l.24,0h.27a1.72,1.72,0,0,1,.6.1,1.32,1.32,0,0,1,.29.15l.35.2s.06.07.09.11a1.3,1.3,0,0,1,.15.18,2.85,2.85,0,0,1,.23.37A2.18,2.18,0,0,1,524.35,20.24Zm0,.23a2.55,2.55,0,0,0-.13-.78,1.47,1.47,0,0,0-.31-.56l-.13-.15a.28.28,0,0,0-.26-.13h-.6l-.32,0h-.05l-.76.19a2.53,2.53,0,0,0-.42.18,1.3,1.3,0,0,0-.51.45c-.06.1-.13.19-.19.28a2.18,2.18,0,0,0-.18.38,1.54,1.54,0,0,0,0,.48c0,.1.06.2.08.3a1.21,1.21,0,0,0,.16.41l.24.38a1.2,1.2,0,0,0,.35.36l.27.17a1.39,1.39,0,0,0,.26.1,1.09,1.09,0,0,0,.25,0l.38,0,.27,0a1.33,1.33,0,0,0,.75-.26,2.73,2.73,0,0,0,.52-.5,1.35,1.35,0,0,0,.3-.69C524.31,20.94,524.32,20.71,524.33,20.47Zm-1.19-1.67h.44l-.06,0c-.09-.05-.2-.09-.29-.15a1.05,1.05,0,0,0-.41-.17,2,2,0,0,0-.6,0l-.21,0a1,1,0,0,0-.51.17,2.68,2.68,0,0,0-.45.44,1.68,1.68,0,0,0-.32.64s0,.05,0,.07h0l.08-.11a1.36,1.36,0,0,1,.45-.41,1.78,1.78,0,0,1,.55-.23,3.62,3.62,0,0,0,.47-.13l.21,0,.57-.06Z"/><path class="cls-8" d="M524.2,19.69a2.55,2.55,0,0,1,.13.78c0,.24,0,.47-.05.71a1.35,1.35,0,0,1-.3.69,2.73,2.73,0,0,1-.52.5,1.33,1.33,0,0,1-.75.26l-.27,0-.38,0a1.09,1.09,0,0,1-.25,0,1.39,1.39,0,0,1-.26-.1l-.27-.17a1.2,1.2,0,0,1-.35-.36l-.24-.38a1.21,1.21,0,0,1-.16-.41c0-.1-.07-.2-.08-.3a1.54,1.54,0,0,1,0-.48,2.18,2.18,0,0,1,.18-.38c.06-.09.13-.18.19-.28a1.3,1.3,0,0,1,.51-.45,2.53,2.53,0,0,1,.42-.18l.76-.19h.05l.32,0h.6a.28.28,0,0,1,.26.13l.13.15A1.47,1.47,0,0,1,524.2,19.69Zm-1.05.69a.55.55,0,0,0-.18-.47.91.91,0,0,0-.49-.29c-.07,0-.13-.05-.19,0h0a.13.13,0,0,0-.09,0,1.33,1.33,0,0,0-.54.51,1.21,1.21,0,0,0-.11.32.76.76,0,0,0,0,.47.26.26,0,0,0,.05.12,1.2,1.2,0,0,0,.37.34l.12.05a.32.32,0,0,0,.35,0,1.12,1.12,0,0,0,.35-.23.63.63,0,0,1,.12-.11.7.7,0,0,0,.24-.48A1.31,1.31,0,0,0,523.15,20.38Z"/><path d="M524.22,24s0,0,0,0l-.21.21,0,0,0-.32.2,0Zm-.19.19c.06-.06.16-.08.17-.18L524,24a1.5,1.5,0,0,0,0,.22Z"/><path class="cls-8" d="M524.2,24c0,.1-.11.12-.17.18h0a1.5,1.5,0,0,1,0-.22Z"/><path class="cls-4" d="M523.58,18.8h-.5l-.57.06-.21,0a3.62,3.62,0,0,1-.47.13,1.78,1.78,0,0,0-.55.23,1.36,1.36,0,0,0-.45.41l-.08.11h0s0-.05,0-.07a1.68,1.68,0,0,1,.32-.64,2.68,2.68,0,0,1,.45-.44,1,1,0,0,1,.51-.17l.21,0a2,2,0,0,1,.6,0,1.05,1.05,0,0,1,.41.17c.09.06.2.1.29.15Z"/><path d="M523.36,23.23a.78.78,0,0,1-.29.62,2.4,2.4,0,0,1-.59-.6Zm0,.05h-.79a1.71,1.71,0,0,0,.11.14l.33.31a.12.12,0,0,0,.18,0l0,0a2.06,2.06,0,0,0,.12-.26A.5.5,0,0,0,523.32,23.28Z"/><path class="cls-8" d="M522.53,23.28h.79a.5.5,0,0,1,0,.16,2.06,2.06,0,0,1-.12.26l0,0a.12.12,0,0,1-.18,0l-.33-.31A1.71,1.71,0,0,1,522.53,23.28Z"/><path d="M523,19.91a.55.55,0,0,1,.18.47,1.31,1.31,0,0,1,0,.28.7.7,0,0,1-.24.48.63.63,0,0,0-.12.11,1.12,1.12,0,0,1-.35.23.32.32,0,0,1-.35,0l-.12-.05a1.2,1.2,0,0,1-.37-.34.26.26,0,0,1-.05-.12.76.76,0,0,1,0-.47,1.21,1.21,0,0,1,.11-.32,1.33,1.33,0,0,1,.54-.51.13.13,0,0,1,.09,0h0c.06-.07.12,0,.19,0A.91.91,0,0,1,523,19.91Zm.14.42a.08.08,0,0,0,0-.11A2.12,2.12,0,0,0,523,20a.67.67,0,0,0-.41-.31l-.08,0a.17.17,0,0,0-.18,0s0,0-.06,0h0a1.21,1.21,0,0,0-.47.37.82.82,0,0,0-.18.36.59.59,0,0,0,0,.29.73.73,0,0,0,.2.47c.08.07.14.17.25.2a.18.18,0,0,1,.07.05.39.39,0,0,0,.33,0,.9.9,0,0,0,.3-.17,1.9,1.9,0,0,0,.21-.19.66.66,0,0,0,.21-.38,1.2,1.2,0,0,0,0-.33S523.1,20.34,523.11,20.33Z"/><path class="cls-7" d="M523.11,20.22a.08.08,0,0,1,0,.11s0,.05,0,.07a1.2,1.2,0,0,1,0,.33.66.66,0,0,1-.21.38,1.9,1.9,0,0,1-.21.19.9.9,0,0,1-.3.17.39.39,0,0,1-.33,0,.18.18,0,0,0-.07-.05c-.11,0-.17-.13-.25-.2a.73.73,0,0,1-.2-.47.59.59,0,0,1,0-.29.82.82,0,0,1,.18-.36,1.21,1.21,0,0,1,.47-.37h0s.05,0,.06,0a.17.17,0,0,1,.18,0l.08,0A.67.67,0,0,1,523,20,2.12,2.12,0,0,1,523.11,20.22Zm-.78,0s0-.1,0-.14a.16.16,0,0,0-.17-.11.32.32,0,0,0-.26.27.21.21,0,0,0,.24.24C522.23,20.47,522.28,20.35,522.33,20.24Z"/><path d="M522.39,24.36a1.19,1.19,0,0,1,.4.34,1.08,1.08,0,0,1-.59,0C522.26,24.6,522.26,24.45,522.39,24.36Zm.37.31-.25-.18-.07,0c-.06,0-.08,0-.11,0s-.06.16-.09.24A.85.85,0,0,0,522.76,24.67Z"/><path class="cls-8" d="M522.51,24.49l.25.18a.85.85,0,0,1-.52,0c0-.08.06-.17.09-.24s0-.07.11,0Z"/><path d="M522.29,20.1s.06.1,0,.14-.1.23-.23.26a.21.21,0,0,1-.24-.24.32.32,0,0,1,.26-.27A.16.16,0,0,1,522.29,20.1Zm0,.22a.18.18,0,0,0-.1-.28.22.22,0,0,0-.25.23.35.35,0,0,1,0,.06.13.13,0,0,0,.22.1A.43.43,0,0,0,522.25,20.32Z"/><path class="cls-8" d="M522.15,20a.18.18,0,0,1,.1.28.43.43,0,0,1-.12.11.13.13,0,0,1-.22-.1.35.35,0,0,0,0-.06A.22.22,0,0,1,522.15,20Z"/><path d="M521.47,24.53a.11.11,0,0,1,0,.08.09.09,0,0,1-.09,0l-.46-.18-.06,0c-.07,0-.08-.09,0-.15a2.5,2.5,0,0,1,.24-.22l.06,0s.1,0,.12.1S521.4,24.39,521.47,24.53Zm-.06.07h.05l-.23-.48a.07.07,0,0,0-.06,0s0,0,0,0,0,0-.08,0l-.17.16s0,.08,0,.11l.17.09Z"/><path d="M521.46,14.22v0l-.12.07a.66.66,0,0,0-.18.23,1.63,1.63,0,0,0-.08.44.78.78,0,0,1,0,.21.09.09,0,0,1-.15,0,.34.34,0,0,0-.36,0,.59.59,0,0,0-.34.48,1.79,1.79,0,0,1-.09.4,1,1,0,0,1-.17.25c-.08.11-.17.21-.25.31a2.39,2.39,0,0,0-.13.21.15.15,0,0,0,0,.09.62.62,0,0,1,.06.44c0,.12,0,.25-.07.36s-.13.37-.2.55a1.27,1.27,0,0,1-.13.19l-.15.27a.81.81,0,0,1-.3.28l-.43.2s-.05,0-.06.08-.07.27-.11.41a.94.94,0,0,1-.1.23.23.23,0,0,1-.07.1l-.49.48c-.11.12-.22.23-.32.35h0c.09-.12.18-.23.28-.34s.21-.23.32-.34A1.09,1.09,0,0,0,518,20a.45.45,0,0,0,.11-.17,3.16,3.16,0,0,0,.16-.43.41.41,0,0,0,0-.19h0c.15-.07.28-.15.43-.21a.54.54,0,0,0,.27-.2c.13-.21.26-.42.38-.64a1.7,1.7,0,0,0,.09-.24c0-.14.08-.27.11-.41a.81.81,0,0,0,0-.41c0-.07-.05-.17-.11-.21a3.54,3.54,0,0,0-.34-.16,1.19,1.19,0,0,1-.4-.34c-.11-.15-.22-.29-.32-.44s-.25-.33-.36-.51a1.19,1.19,0,0,0-.54-.5.25.25,0,0,0-.32.07,1.14,1.14,0,0,0-.19.34,1.26,1.26,0,0,0-.07.51c0,.21,0,.41,0,.62s0,.27,0,.41a2.33,2.33,0,0,0,.2.73l.21.43a3.13,3.13,0,0,0,.46.68c.12.14.23.29.34.44a.07.07,0,0,1,0,.05h0l-.41-.52a4,4,0,0,1-.49-.74c-.1-.21-.19-.42-.27-.64a3.65,3.65,0,0,1-.07-.46c0-.11,0-.21,0-.32s0-.45,0-.67a1.54,1.54,0,0,1,.17-.73.51.51,0,0,1,.23-.25.33.33,0,0,1,.17,0,.81.81,0,0,1,.39.23,3,3,0,0,1,.41.59l.12.16.39.53a1.12,1.12,0,0,0,.2.18,1.37,1.37,0,0,0,.2.13l.25.13c.06,0,.1,0,.14,0s.22-.32.34-.48l.2-.26a.61.61,0,0,0,0-.13,3.06,3.06,0,0,1,0-.32.6.6,0,0,1,.38-.46.3.3,0,0,1,.3,0l.09.05.06,0a.69.69,0,0,0,0-.13c0-.11,0-.22,0-.33a.6.6,0,0,1,.28-.47A.23.23,0,0,1,521.46,14.22Z"/><path class="cls-8" d="M521.46,24.59h-.05l-.35-.14-.17-.09c-.06,0-.07-.07,0-.11l.17-.16s.05-.05.08,0,0,0,0,0a.07.07,0,0,1,.06,0Z"/><path d="M521.28,23.21s.06,0,0,.08-.1.11-.16.16l-.22.16s-.07,0-.08,0a.72.72,0,0,1-.19-.34c0-.1,0-.2-.07-.3s0-.08.07-.08h0a1.65,1.65,0,0,1,.46.23A.34.34,0,0,0,521.28,23.21Zm0,.05a1.47,1.47,0,0,0-.65-.35,1.2,1.2,0,0,0,.27.69A1,1,0,0,0,521.26,23.26Z"/><path class="cls-5" d="M521,29.66c.05,0,.09.1.14.14l-.29.05c-.16,0-.33.06-.5.07a4,4,0,0,1-.49,0h-.26a2.7,2.7,0,0,1-.41-.05,2.22,2.22,0,0,1-.68-.19c-.13-.07-.28-.12-.41-.18a.14.14,0,0,1-.09-.14c0-.09,0-.17,0-.26a1,1,0,0,1,.1-.49c.08-.16.07-.16.2,0a.89.89,0,0,0,.35.21,1.11,1.11,0,0,1,.34.14.78.78,0,0,0,.23.08c.1,0,.21,0,.31.05a2.18,2.18,0,0,1,.51.17,2.86,2.86,0,0,0,.41.15.83.83,0,0,1,.32.17C520.87,29.57,521,29.61,521,29.66Z"/><path class="cls-8" d="M520.61,22.91a1.47,1.47,0,0,1,.65.35,1,1,0,0,1-.38.34A1.2,1.2,0,0,1,520.61,22.91Z"/><path d="M520.29,22c0,.12,0,.2-.13.23a.21.21,0,0,1-.15,0,.62.62,0,0,1-.1-.16.19.19,0,0,1,.11-.21.15.15,0,0,1,.19.06Zm-.19.2a.16.16,0,0,0,.16-.16.22.22,0,0,0-.18-.2.15.15,0,0,0-.14.14C519.94,22,520,22.16,520.1,22.16Z"/><path class="cls-6" d="M520.26,22a.16.16,0,0,1-.16.16c-.07,0-.16-.12-.16-.22a.15.15,0,0,1,.14-.14A.22.22,0,0,1,520.26,22Z"/><path d="M519.88,21.51a.24.24,0,0,1-.08.22.26.26,0,0,1-.29,0,.55.55,0,0,1-.13-.25.23.23,0,0,1,.15-.25C519.72,21.16,519.87,21.28,519.88,21.51Zm-.07.15a.31.31,0,0,0-.07-.4.18.18,0,0,0-.23,0s-.08.09-.1.13a.42.42,0,0,0,.15.31A.16.16,0,0,0,519.81,21.66Z"/><path class="cls-6" d="M519.74,21.26a.31.31,0,0,1,.07.4.16.16,0,0,1-.25,0,.42.42,0,0,1-.15-.31s.05-.11.1-.13A.18.18,0,0,1,519.74,21.26Z"/><path d="M519.57,22a.24.24,0,0,1,.12.22.21.21,0,0,1-.06.18l-.12.07a.34.34,0,0,1-.21-.18.22.22,0,0,1,.06-.24A.19.19,0,0,1,519.57,22Zm-.06.42c.08,0,.15-.1.15-.18s-.07-.22-.17-.21a.17.17,0,0,0-.17.18A.23.23,0,0,0,519.51,22.42Z"/><path class="cls-6" d="M519.66,22.24c0,.08-.07.18-.15.18a.23.23,0,0,1-.19-.21.17.17,0,0,1,.17-.18C519.59,22,519.66,22.1,519.66,22.24Z"/><path class="cls-5" d="M519.57,17.09a.81.81,0,0,1,0,.41c0,.14-.07.27-.11.41a1.7,1.7,0,0,1-.09.24c-.12.22-.25.43-.38.64a.54.54,0,0,1-.27.2c-.15.06-.28.14-.43.21h0a.07.07,0,0,0,0-.05c-.11-.15-.22-.3-.34-.44a3.13,3.13,0,0,1-.46-.68l-.21-.43a2.33,2.33,0,0,1-.2-.73c0-.14,0-.27,0-.41s0-.41,0-.62a1.26,1.26,0,0,1,.07-.51,1.14,1.14,0,0,1,.19-.34.25.25,0,0,1,.32-.07,1.19,1.19,0,0,1,.54.5c.11.18.24.34.36.51s.21.29.32.44a1.19,1.19,0,0,0,.4.34,3.54,3.54,0,0,1,.34.16C519.52,16.92,519.54,17,519.57,17.09Z"/><polygon class="cls-8" points="518.22 19.21 518.22 19.22 518.21 19.21 518.22 19.21"/><polygon class="cls-8" points="518.21 19.21 518.22 19.22 518.21 19.21 518.21 19.21"/><path class="cls-5" d="M517.47,25.06a.62.62,0,0,1,0,.13h-.09a.59.59,0,0,1-.49-.17,2,2,0,0,1-.29-.36.83.83,0,0,1-.08-.28s0-.06,0-.09l.27,0,.37,0c.06,0,.13,0,.17,0s0,.09.06.15,0,.21,0,.32S517.46,25,517.47,25.06Z"/><circle class="cls-3" cx="16.75" cy="40.35" r="16.25"/></g></g></svg>