<svg xmlns="http://www.w3.org/2000/svg" viewBox="0 0 490.58 83.07"><defs><style>.cls-1{font-size:72px;stroke:#000;stroke-miterlimit:10;font-family:NasalizationRg-Regular, Nasalization;}.cls-1,.cls-2{fill:lime;}.cls-3{fill:#662d91;}.cls-4{fill:#f15a24;}.cls-5{fill:#333;}.cls-6{fill:#fff;}</style></defs><g id="Layer_2" data-name="Layer 2"><g id="Layer_1-2" data-name="Layer 1"><text class="cls-1" transform="translate(0.5 60.8)"><tspan xml:space="preserve">SpaceR  cks</tspan></text><path d="M328.22,44c0,.36.1.73.1,1.09a4.67,4.67,0,0,1-.22,1.52c-.15.4-.22.84-.39,1.24a2.51,2.51,0,0,1-.52,1,4.73,4.73,0,0,1-.4.37,3.1,3.1,0,0,1-1.07.68A5.71,5.71,0,0,1,325,50c-.18,0-.37,0-.55,0s-.1.08-.14.13a3.57,3.57,0,0,0-.55,1c-.14.41-.32.8-.48,1.19a.31.31,0,0,0,0,.13c0,.45.08.9.1,1.36a5.21,5.21,0,0,1-.06,1.42,8.27,8.27,0,0,0-.23,1.1,1.57,1.57,0,0,0,.15,1.16s.09.06.13.09a.46.46,0,0,1,.07.07c0,.16.05.32.06.48,0,.35,0,.71,0,1a2,2,0,0,1-.41,1.25,3.53,3.53,0,0,1-.51.58,1.17,1.17,0,0,1-.46.26q-.57.18-1.14.3a8.85,8.85,0,0,1-.9.1l-.66.07c-.26,0-.52,0-.78,0H317.6c-.29,0-.58,0-.87,0a1,1,0,0,0-.24.07l-.2,0-.93-.07-1.6-.17c-.45,0-.89,0-1.34-.09-.19,0-.37-.1-.57-.13a7.52,7.52,0,0,0-.83-.09,8.81,8.81,0,0,0-.89,0c-.57,0-1.14,0-1.71.06a7.08,7.08,0,0,0-.79.09c-.35,0-.69.12-1,.18-.5.09-1,.18-1.51.25a7.79,7.79,0,0,1-1.74,0,3.74,3.74,0,0,0-.58,0,7.63,7.63,0,0,1-1.5-.21,5.71,5.71,0,0,1-.91-.21c-.32-.11-.63-.27-.94-.41s-.43-.19-.63-.29a.31.31,0,0,1-.15-.15,2.48,2.48,0,0,1-.12-1.18.43.43,0,0,0,0-.05,2.33,2.33,0,0,1,.34-1.15.75.75,0,0,0,.06-.29,8,8,0,0,0,0-1,1.78,1.78,0,0,0-.19-.53,2.63,2.63,0,0,1-.36-1.29,4.84,4.84,0,0,0,0-.53c0-.3,0-.6,0-.9s.09-.53.11-.79a1.55,1.55,0,0,0,0-.48,6.22,6.22,0,0,0-.15-.75,9.9,9.9,0,0,0-.39-1.08,3.32,3.32,0,0,0-.33-.5l0,0h-.15a1.88,1.88,0,0,0-.33-.05,1.54,1.54,0,0,1-1.36-.49c-.23-.22-.41-.51-.62-.75a1.73,1.73,0,0,1-.27-.79.94.94,0,0,0-.25-.52,1.66,1.66,0,0,1-.32-.62,3.15,3.15,0,0,1-.17-.6,3.26,3.26,0,0,1-.12-.76,11.33,11.33,0,0,1,.12-1.42,7.11,7.11,0,0,1,.27-1.08c.1-.33.25-.65.38-1,.05-.13.08-.27.13-.39a7.43,7.43,0,0,1,.91-1.6c.13-.16.22-.35.35-.52s.23-.29.35-.43h0c-.06.09-.13.18-.19.28a11.91,11.91,0,0,0-1.08,1.73c-.21.49-.43,1-.61,1.47s-.35,1.07-.5,1.62a2.64,2.64,0,0,0-.05.63,4,4,0,0,0,.11,1.42c.11.33.18.68.32,1a.66.66,0,0,0,.61.41l1.6.1.27,0a21,21,0,0,1,.44,2.18c.29,0,.44.28.57.52a5.65,5.65,0,0,1,.23.57,2.68,2.68,0,0,1,.23.71A3.55,3.55,0,0,1,298.5,53a7.92,7.92,0,0,0-.09,1.54,10.54,10.54,0,0,0,.08,1.12s0,.08,0,.1c.21.25.21.59.37.86a1.36,1.36,0,0,1,.1.89,4.53,4.53,0,0,0,0,.52,0,0,0,0,0,0,0l.85.65a.51.51,0,0,0,.17.07,3.61,3.61,0,0,1,1,.42,1.8,1.8,0,0,0,.61.18c.28.06.58.06.85.13s.75.25,1.12.38.75.28,1.12.44a4.56,4.56,0,0,1,.67.32,5.54,5.54,0,0,1,.65.42,4.17,4.17,0,0,1,.43.41.31.31,0,0,0,.14.07c.35-.06.7-.14,1.05-.19s.77,0,1.16-.06c.23,0,.46,0,.69,0a10.59,10.59,0,0,1,1.95,0,7,7,0,0,1,.77.15c.26,0,.52.08.78.11l1.63.13.6.05c.37,0,.73.08,1.09.09a.29.29,0,0,0,.13,0c.22,0,.45,0,.67,0s.48,0,.72,0,.49,0,.73,0c.39,0,.78-.07,1.18-.1s.55,0,.83,0a3.41,3.41,0,0,0,.54-.1l1.25-.41a.19.19,0,0,0,.07-.06c.23-.31.44-.63.69-.93a1.36,1.36,0,0,0,.19-1c0-.26,0-.53,0-.79a3.13,3.13,0,0,0,0-.43c0-.14-.14-.11-.23,0l-.42.29c-.46.29-.92.58-1.39.86a2.86,2.86,0,0,1-.42.24c-.34.17-.67.35-1,.49s-1,.28-1.44.47a3.61,3.61,0,0,0-.85.49c-.3.25-.57.54-.85.82-.07.07-.12.15-.19.21a2.38,2.38,0,0,1,.74-.89,4,4,0,0,1,.46-.35,3.71,3.71,0,0,1,1.14-.53,10.53,10.53,0,0,0,1.12-.38c.42-.19.83-.43,1.26-.63a8.13,8.13,0,0,0,1.43-.89c.16-.12.35-.22.54-.34,0-.08-.11-.17-.16-.28a1.67,1.67,0,0,1-.05-1.06c.07-.37.12-.75.2-1.11a4.76,4.76,0,0,0,0-1.64,4.71,4.71,0,0,1-.05-1.06,3.33,3.33,0,0,1,.26-.81,3.92,3.92,0,0,1,.22-.51c.2-.41.4-.81.61-1.21,0,0,.1-.06.15-.08s.06,0,.09,0c.37,0,.45-.14.41-.58a6.17,6.17,0,0,0-.08-.62c-.06-.35,0-.62.25-.69a2.34,2.34,0,0,1,.59-.09l.78,0a6,6,0,0,0,.72-.11l.51-.15s0-.06.05-.09c.08-.27.16-.54.23-.81a6.8,6.8,0,0,0,.18-.75,3.92,3.92,0,0,0,.08-.84c0-.42-.07-.84-.11-1.26,0-.21,0-.43,0-.64a2.11,2.11,0,0,0-.14-.49c-.21-.56-.42-1.12-.64-1.67-.07-.16-.18-.32-.27-.48-.21-.34-.41-.69-.63-1s-.42-.54-.64-.8c-.07-.09-.14-.19-.22-.28-.31-.36-.61-.72-.93-1.07l-1.09-1.14c-.12-.12-.26-.22-.39-.34-.36-.36-.73-.71-1.09-1.08-.13.12-.27.26-.43.39a.64.64,0,0,1-.92,0,8.79,8.79,0,0,1-.76-.73c-.27-.33-.49-.69-.73-1a4,4,0,0,1-.2-.35c-.18-.36-.35-.72-.51-1.09a4.14,4.14,0,0,1-.37-1.42,5.61,5.61,0,0,1,.13-1.14.32.32,0,0,1,.13-.18c.12-.08.1-.15,0-.26-.26-.38-.51-.77-.76-1.16s0-.55,0-.83a.85.85,0,0,0,0-.17,2,2,0,0,0-.18-.93.86.86,0,0,0-1-.59l-.8.12c-.14,0-.23,0-.23-.18a1.66,1.66,0,0,0-.18-.65,3.72,3.72,0,0,0-.56-1,1.08,1.08,0,0,0-.91-.42.86.86,0,0,0-.65.37,3.41,3.41,0,0,1-.37.39c-.16.15-.25.1-.33-.1s-.23-.46-.34-.68a2.84,2.84,0,0,0-.65-.88.88.88,0,0,0-.69-.24,1.5,1.5,0,0,0-1.2,1,1.87,1.87,0,0,1-.39.46c-.11.11-.23.05-.33,0s-.35-.33-.53-.48a3.76,3.76,0,0,0-.63-.44c-.11-.06-.27,0-.41,0h-.12v-.06c.16,0,.34-.08.46,0a4.76,4.76,0,0,1,.81.54,5.82,5.82,0,0,1,.53.46c.1.1.18,0,.23,0a2.1,2.1,0,0,0,.31-.41,1.89,1.89,0,0,1,.54-.74,1.34,1.34,0,0,1,.95-.3,1.09,1.09,0,0,1,.51.24,3,3,0,0,1,.8,1.12c.08.17.16.33.23.5s.12.16.23,0,.37-.41.56-.6a1,1,0,0,1,.9-.08l.29.15a1.92,1.92,0,0,1,.77,1.06,9.26,9.26,0,0,1,.26.9.13.13,0,0,0,.09.07,3.54,3.54,0,0,0,.45-.08,1.44,1.44,0,0,1,1,0,.7.7,0,0,1,.35.39,6.13,6.13,0,0,1,.25.72c.13.37-.08.73-.08,1.1a.43.43,0,0,0,0,.23c.15.25.31.48.46.72l.44.68.7-.42a9.11,9.11,0,0,0,1.33-1.23,9.56,9.56,0,0,0,1.69-2.11,8.15,8.15,0,0,1,.87-1.09A1.35,1.35,0,0,1,324,24a.6.6,0,0,1,.37.17,2.62,2.62,0,0,1,.75,1.15c.06.19.18.35.22.54a6.12,6.12,0,0,1,.1.86,3.87,3.87,0,0,1,0,.59c0,.51,0,1-.1,1.52a5.58,5.58,0,0,1-.27.88.42.42,0,0,1,0,.1c-.08.26-.19.52-.26.78a6.22,6.22,0,0,1-.73,1.43c-.3.51-.65,1-1,1.46-.21.29-.4.58-.6.87l-.14.18c-.24.34-.25.34,0,.63.46.46.94.89,1.39,1.35s1.09,1.17,1.63,1.76c.23.25.45.5.65.76s.46.67.68,1,.36.56.53.85a7.49,7.49,0,0,1,.61,1.5c.05.15.1.3.16.45A3.64,3.64,0,0,1,328.22,44Zm-.59,3.81c-.31,0-.61.11-.92.14-.48.06-1,.1-1.43.14-.26,0-.4.16-.37.41l0,.3c0,.21.05.41.05.62a3.67,3.67,0,0,1,0,.46A3,3,0,0,0,327.63,47.85Zm-2.24-20.74c0-.28,0-.56,0-.84h0c0-.07,0-.14,0-.21s-.17-.43-.25-.65a2.86,2.86,0,0,0-.83-1.23.44.44,0,0,0-.25-.08,1.52,1.52,0,0,0-.81.4A10.58,10.58,0,0,0,322.06,26l-.63.88a3,3,0,0,1-.29.32,10.49,10.49,0,0,0-.75.74,5.72,5.72,0,0,1-1.16,1c-.15.1-.34.16-.51.25s-.36.12-.41.33a3,3,0,0,0,.08,2,11.4,11.4,0,0,0,.71,1.65,5.57,5.57,0,0,0,1.22,1.63c.18.16.35.31.54.45a.52.52,0,0,0,.6,0,7.39,7.39,0,0,0,.82-.86c.28-.35.52-.73.77-1.1s.66-1,1-1.5c.08-.12.13-.27.22-.4a5.81,5.81,0,0,0,.64-1.41,5,5,0,0,0,.39-1.57h0C325.32,28.05,325.36,27.58,325.39,27.11ZM306.5,61.57a2.89,2.89,0,0,0-.35-.35c-.21-.15-.44-.25-.64-.4a2.17,2.17,0,0,0-.8-.41,6.15,6.15,0,0,1-1-.38,5.22,5.22,0,0,0-1.28-.43c-.26-.06-.53-.07-.79-.12a1.9,1.9,0,0,1-.58-.2,2.58,2.58,0,0,0-.84-.35,2.15,2.15,0,0,1-.88-.53c-.32-.29-.29-.29-.49.1a2.78,2.78,0,0,0-.26,1.23c0,.22.07.43.08.65a.35.35,0,0,0,.22.35c.34.16.69.28,1,.45a6.19,6.19,0,0,0,1.69.49c.34.06.7.08,1,.11s.42,0,.64,0c.41,0,.82.07,1.23,0a11,11,0,0,0,1.26-.19ZM297.24,50c0-.1,0-.22,0-.33s-.07-.4-.1-.6-.07-.53-.12-.79-.06-.32-.14-.37-.28,0-.42,0l-.95-.07-.66-.05a.93.93,0,0,0,0,.23,2.43,2.43,0,0,0,.21.71,5.43,5.43,0,0,0,.72.88A1.4,1.4,0,0,0,297,50Z"/><path class="cls-2" d="M328.23,45.2a3.92,3.92,0,0,1-.08.84,6.8,6.8,0,0,1-.18.75c-.07.27-.15.54-.23.81,0,0,0,.08-.05.09l-.51.15a6,6,0,0,1-.72.11l-.78,0a2.34,2.34,0,0,0-.59.09c-.23.07-.31.34-.25.69a6.17,6.17,0,0,1,.08.62c0,.44,0,.54-.41.58,0,0-.06,0-.09,0s-.13,0-.15.08c-.21.4-.41.8-.61,1.21a3.92,3.92,0,0,0-.22.51,3.33,3.33,0,0,0-.26.81,4.71,4.71,0,0,0,.05,1.06,4.76,4.76,0,0,1,0,1.64c-.08.36-.13.74-.2,1.11a1.67,1.67,0,0,0,.05,1.06c.05.11.12.2.16.28-.19.12-.38.22-.54.34a8.13,8.13,0,0,1-1.43.89c-.43.2-.84.44-1.26.63a10.53,10.53,0,0,1-1.12.38,3.71,3.71,0,0,0-1.14.53,4,4,0,0,0-.46.35,2.38,2.38,0,0,0-.74.89v.07a.29.29,0,0,1-.13,0c-.36,0-.72-.06-1.09-.09l-.6-.05-1.63-.13c-.26,0-.52-.06-.78-.11a7,7,0,0,0-.77-.15,10.59,10.59,0,0,0-1.95,0c-.23,0-.46,0-.69,0-.39,0-.78,0-1.16.06s-.7.13-1.05.19a.31.31,0,0,1-.14-.07,4.17,4.17,0,0,0-.43-.41,5.54,5.54,0,0,0-.65-.42,4.56,4.56,0,0,0-.67-.32c-.37-.16-.75-.3-1.12-.44s-.74-.28-1.12-.38-.57-.07-.85-.13a1.8,1.8,0,0,1-.61-.18,3.61,3.61,0,0,0-1-.42.51.51,0,0,1-.17-.07l-.85-.65a0,0,0,0,1,0,0,4.53,4.53,0,0,1,0-.52,1.36,1.36,0,0,0-.1-.89c-.16-.27-.16-.61-.37-.86,0,0,0-.07,0-.1a10.54,10.54,0,0,1-.08-1.12A7.92,7.92,0,0,1,298.5,53a3.55,3.55,0,0,0-.11-1.22,2.68,2.68,0,0,0-.23-.71,5.65,5.65,0,0,0-.23-.57c-.13-.24-.28-.48-.57-.52a21,21,0,0,0-.44-2.18l-.27,0-1.6-.1a.66.66,0,0,1-.61-.41c-.14-.32-.21-.67-.32-1a4,4,0,0,1-.11-1.42,2.64,2.64,0,0,1,.05-.63c.15-.55.31-1.09.5-1.62s.4-1,.61-1.47a11.91,11.91,0,0,1,1.08-1.73c.06-.1.13-.19.19-.28.28-.29.54-.59.82-.87s.81-.81,1.21-1.22a.72.72,0,0,0,.2-.23,4.35,4.35,0,0,0,.25-.59c.1-.34.19-.68.27-1,0-.1,0-.16.13-.2.37-.16.73-.32,1.09-.5a1.87,1.87,0,0,0,.75-.7c.13-.22.25-.45.38-.66a4.55,4.55,0,0,0,.32-.49c.18-.45.35-.91.5-1.37.08-.29.11-.59.17-.89a1.53,1.53,0,0,0-.14-1.11.27.27,0,0,1,0-.23,4,4,0,0,1,.32-.52l.62-.78a2.61,2.61,0,0,0,.43-.63,6.48,6.48,0,0,0,.23-1,1.56,1.56,0,0,1,.84-1.23,1,1,0,0,1,.91.11.22.22,0,0,0,.37-.08,1.72,1.72,0,0,0,.11-.5,2.73,2.73,0,0,1,.21-1.1,1.13,1.13,0,0,1,.43-.58,3.28,3.28,0,0,0,.31-.2h0v0h.12c.14,0,.3,0,.41,0a3.76,3.76,0,0,1,.63.44c.18.15.35.32.53.48s.22.14.33,0a1.87,1.87,0,0,0,.39-.46,1.5,1.5,0,0,1,1.2-1,.88.88,0,0,1,.69.24,2.84,2.84,0,0,1,.65.88c.11.22.24.44.34.68s.17.25.33.1a3.41,3.41,0,0,0,.37-.39.86.86,0,0,1,.65-.37,1.08,1.08,0,0,1,.91.42,3.72,3.72,0,0,1,.56,1,1.66,1.66,0,0,1,.18.65c0,.22.09.2.23.18l.8-.12a.86.86,0,0,1,1,.59,2,2,0,0,1,.18.93.85.85,0,0,1,0,.17c-.06.28-.19.56,0,.83s.5.78.76,1.16c.07.11.09.18,0,.26a.32.32,0,0,0-.13.18,5.61,5.61,0,0,0-.13,1.14,4.14,4.14,0,0,0,.37,1.42c.16.37.33.73.51,1.09a4,4,0,0,0,.2.35c.24.35.46.71.73,1a8.79,8.79,0,0,0,.76.73.64.64,0,0,0,.92,0c.16-.13.3-.27.43-.39.36.37.73.72,1.09,1.08.13.12.27.22.39.34l1.09,1.14c.32.35.62.71.93,1.07.08.09.15.19.22.28.22.26.44.52.64.8s.42.67.63,1c.09.16.2.32.27.48.22.55.43,1.11.64,1.67a2.11,2.11,0,0,1,.14.49c0,.21,0,.43,0,.64C328.16,44.36,328.21,44.78,328.23,45.2Zm-11.69-1.34c.37,0,.58-.19.57-.53,0-.19-.28-.51-.43-.5-.37,0-.6.17-.6.44C316.09,43.71,316.21,43.87,316.54,43.86Zm.22-2.43a.51.51,0,0,0-.4-.52c-.35,0-.51.13-.47.5a.2.2,0,0,1,0,.07.5.5,0,0,0,.35.47c.17,0,.27-.06.36-.18A1,1,0,0,0,316.76,41.43Zm-.83,3.66a1.46,1.46,0,0,0-.07-.85.92.92,0,0,0-.2-.42.9.9,0,0,0-.48-.2,2.44,2.44,0,0,0-.76.06,9.32,9.32,0,0,0-1,.3c-.13,0-.25.14-.38.17l-1.62.34-1.18.22a4.67,4.67,0,0,1-.52.08l-1.27,0a4.66,4.66,0,0,1-1.59-.33l-.54-.23-.84-.35c-.27-.11-.53-.23-.8-.33a2.7,2.7,0,0,0-.41-.07.84.84,0,0,0-.59.27,1.8,1.8,0,0,0-.15.89.74.74,0,0,1,0,.21,2.81,2.81,0,0,0,.08,1.19,3.9,3.9,0,0,0,.79,1.4c.1.11.22.21.33.31a6.91,6.91,0,0,0,.57.51,4.58,4.58,0,0,0,.76.47,8.31,8.31,0,0,0,1,.41c.31.09.64.1.95.17a9.64,9.64,0,0,0,1.86,0,4.45,4.45,0,0,0,.71-.09l.76-.08c.06-.06.09-.1.13-.11s.34-.09.5-.15.4-.14.6-.23c.36-.17.72-.34,1.06-.54a8,8,0,0,0,.82-.57,2.19,2.19,0,0,0,.47-.44c.12-.17.36-.21.39-.47a1.12,1.12,0,0,1,.25-.45A2.48,2.48,0,0,0,315.93,45.09Zm-.68-2.5s0,0,0-.06-.11-.34-.23-.4a.43.43,0,0,0-.5.07c-.15.11-.07.26-.08.39a.42.42,0,0,0,.46.47C315.06,43.06,315.26,42.81,315.25,42.59Zm-.83-3.32a12.85,12.85,0,0,0,0-1.64,5.73,5.73,0,0,0-.48-1.87,6.19,6.19,0,0,0-.58-.95c-.11-.16-.25-.29-.37-.45a1.25,1.25,0,0,0-.24-.27c-.28-.18-.57-.33-.86-.49a5.52,5.52,0,0,0-.72-.38,4.32,4.32,0,0,0-1.51-.26H309c-.19,0-.39,0-.59.1a3.54,3.54,0,0,0-1.12.42,2.12,2.12,0,0,0-.38.29,7,7,0,0,0-1,1.11,13.73,13.73,0,0,0-.85,1.72,5.16,5.16,0,0,0-.28.78,4.64,4.64,0,0,0-.18,1.85,7,7,0,0,0,.19.76,2.94,2.94,0,0,0,.43,1.07l.61.88a3.42,3.42,0,0,0,.93,1,4.1,4.1,0,0,0,.41.22,3.14,3.14,0,0,0,1.07.49,14.13,14.13,0,0,0,1.46.11,7,7,0,0,0,1.2-.15,3.15,3.15,0,0,0,1.73-.85,9.18,9.18,0,0,0,1.12-1.21,4.19,4.19,0,0,0,.49-1.08A5.36,5.36,0,0,0,314.42,39.27ZM303.94,42.5c.23-.07.31-.27.33-.56a2.85,2.85,0,0,0-.21-.32.39.39,0,0,0-.48-.13.41.41,0,0,0-.25.51,1.1,1.1,0,0,0,.24.42A.48.48,0,0,0,303.94,42.5ZM303,41.34a.57.57,0,0,0,.22-.52c0-.58-.42-.9-.88-.77a.58.58,0,0,0-.37.64,1.16,1.16,0,0,0,.32.62A.6.6,0,0,0,303,41.34Zm-.25,1.25a.66.66,0,0,0-.31-.56.48.48,0,0,0-.54.13.52.52,0,0,0-.13.6.74.74,0,0,0,.52.44,2.82,2.82,0,0,0,.29-.18A.59.59,0,0,0,302.78,42.59Z"/><path class="cls-3" d="M326.71,48c.31,0,.61-.09.92-.14A3,3,0,0,1,325,49.92a3.67,3.67,0,0,0,0-.46c0-.21,0-.41-.05-.62l0-.3c0-.25.11-.39.37-.41C325.75,48.09,326.23,48.05,326.71,48Z"/><path class="cls-3" d="M325.39,26.27c0,.28,0,.56,0,.84,0,.47-.07.94-.11,1.41h0a5,5,0,0,1-.39,1.57,5.81,5.81,0,0,1-.64,1.41c-.09.13-.14.28-.22.4-.32.5-.65,1-1,1.5s-.49.75-.77,1.1a7.39,7.39,0,0,1-.82.86.52.52,0,0,1-.6,0c-.19-.14-.36-.29-.54-.45a5.57,5.57,0,0,1-1.22-1.63,11.4,11.4,0,0,1-.71-1.65,3,3,0,0,1-.08-2c.05-.21.25-.25.41-.33s.36-.15.51-.25a5.72,5.72,0,0,0,1.16-1,10.49,10.49,0,0,1,.75-.74,3,3,0,0,0,.29-.32l.63-.88a10.58,10.58,0,0,1,1.14-1.52,1.52,1.52,0,0,1,.81-.4.44.44,0,0,1,.25.08,2.86,2.86,0,0,1,.83,1.23c.08.22.17.43.25.65s0,.14,0,.21Z"/><path class="cls-3" d="M323.4,59.13a1.36,1.36,0,0,1-.19,1c-.25.3-.46.62-.69.93a.19.19,0,0,1-.07.06l-1.25.41a3.41,3.41,0,0,1-.54.1c-.28,0-.56,0-.83,0s-.79.08-1.18.1c-.24,0-.49,0-.73,0s-.48,0-.72,0-.45,0-.67,0v-.07c.07-.06.12-.14.19-.21.28-.28.55-.57.85-.82a3.61,3.61,0,0,1,.85-.49c.47-.19,1-.3,1.44-.47s.68-.32,1-.49a2.86,2.86,0,0,0,.42-.24c.47-.28.93-.57,1.39-.86l.42-.29c.09-.06.2-.09.23,0a3.13,3.13,0,0,1,0,.43C323.39,58.6,323.39,58.87,323.4,59.13Z"/><path d="M317.11,43.33c0,.34-.2.53-.57.53s-.45-.15-.46-.59c0-.27.23-.41.6-.44C316.83,42.82,317.1,43.14,317.11,43.33Zm-.09.06c0-.16-.23-.46-.35-.46-.29,0-.49.15-.48.35,0,.38.12.52.4.51A.48.48,0,0,0,317,43.39Z"/><path class="cls-4" d="M316.67,42.93c.12,0,.35.3.35.46a.48.48,0,0,1-.43.4c-.28,0-.39-.13-.4-.51C316.18,43.08,316.38,42.94,316.67,42.93Z"/><path d="M316.36,40.91a.51.51,0,0,1,.4.52,1,1,0,0,1-.15.34c-.09.12-.19.23-.36.18a.5.5,0,0,1-.35-.47.2.2,0,0,0,0-.07C315.85,41,316,41,316.36,40.91Zm.23.77a.39.39,0,0,0,0-.46,1.44,1.44,0,0,0-.19-.22c-.31,0-.48.08-.44.38v0a.48.48,0,0,0,.25.43C316.41,41.92,316.5,41.78,316.59,41.68Z"/><path class="cls-4" d="M316.61,41.22a.39.39,0,0,1,0,.46c-.09.1-.18.24-.36.18a.48.48,0,0,1-.25-.43v0c0-.3.13-.35.44-.38A1.44,1.44,0,0,1,316.61,41.22Z"/><path d="M315.86,44.24a1.46,1.46,0,0,1,.07.85,2.48,2.48,0,0,1-.37,1.09,1.12,1.12,0,0,0-.25.45c0,.26-.27.3-.39.47a2.19,2.19,0,0,1-.47.44,8,8,0,0,1-.82.57c-.34.2-.7.37-1.06.54-.2.09-.4.16-.6.23s-.34.1-.5.15-.07,0-.13.11l-.76.08a4.45,4.45,0,0,1-.71.09,9.64,9.64,0,0,1-1.86,0c-.31-.07-.64-.08-.95-.17a8.31,8.31,0,0,1-1-.41,4.58,4.58,0,0,1-.76-.47,6.91,6.91,0,0,1-.57-.51c-.11-.1-.23-.2-.33-.31a3.9,3.9,0,0,1-.79-1.4,2.81,2.81,0,0,1-.08-1.19.74.74,0,0,0,0-.21,1.8,1.8,0,0,1,.15-.89.84.84,0,0,1,.59-.27,2.7,2.7,0,0,1,.41.07c.27.1.53.22.8.33l.84.35.54.23a4.66,4.66,0,0,0,1.59.33l1.27,0a4.67,4.67,0,0,0,.52-.08l1.18-.22,1.62-.34c.13,0,.25-.13.38-.17a9.32,9.32,0,0,1,1-.3,2.44,2.44,0,0,1,.76-.06.9.9,0,0,1,.48.2A.92.92,0,0,1,315.86,44.24Zm-.05,1a1.62,1.62,0,0,0,0-.9.84.84,0,0,0-.64-.66,1.67,1.67,0,0,0-.5,0,8.62,8.62,0,0,0-1.28.37,7,7,0,0,1-1.34.38c-.64.11-1.27.24-1.91.34a8.16,8.16,0,0,1-1.1.09c-.31,0-.62,0-.93-.05a1.37,1.37,0,0,1-.29,0l-1.29-.41c-.23-.08-.45-.16-.67-.26s-.6-.32-.92-.44a2.08,2.08,0,0,0-.69-.15.57.57,0,0,0-.44.14,1.36,1.36,0,0,0-.22.62c0,.35,0,.71,0,1.06h-.06a6.4,6.4,0,0,0,.28,1,3.9,3.9,0,0,0,.57.88,4.9,4.9,0,0,0,1.08,1A5.64,5.64,0,0,0,307,49a4.65,4.65,0,0,0,1,.16c.44,0,.88.06,1.33.06.28,0,.57-.06.85-.08a5.68,5.68,0,0,0,.72,0,4.4,4.4,0,0,0,.88-.24,11.73,11.73,0,0,0,1.27-.53,8.18,8.18,0,0,0,1.09-.67,4.53,4.53,0,0,0,1.15-1.12A3.74,3.74,0,0,0,315.81,45.26Z"/><path class="cls-5" d="M315.8,44.36a1.62,1.62,0,0,1,0,.9,3.74,3.74,0,0,1-.55,1.28,4.53,4.53,0,0,1-1.15,1.12,8.18,8.18,0,0,1-1.09.67,11.73,11.73,0,0,1-1.27.53,4.4,4.4,0,0,1-.88.24,5.68,5.68,0,0,1-.72,0c-.28,0-.57.08-.85.08-.45,0-.89,0-1.33-.06a4.65,4.65,0,0,1-1-.16,5.64,5.64,0,0,1-1.54-.75,4.9,4.9,0,0,1-1.08-1,3.9,3.9,0,0,1-.57-.88,6.4,6.4,0,0,1-.28-1h.06c0-.35,0-.71,0-1.06a1.36,1.36,0,0,1,.22-.62.57.57,0,0,1,.44-.14,2.08,2.08,0,0,1,.69.15c.32.12.61.3.92.44s.44.18.67.26l1.29.41a1.37,1.37,0,0,0,.29,0c.31,0,.62.06.93.05a8.16,8.16,0,0,0,1.1-.09c.64-.1,1.27-.23,1.91-.34a7,7,0,0,0,1.34-.38,8.62,8.62,0,0,1,1.28-.37,1.67,1.67,0,0,1,.5,0A.84.84,0,0,1,315.8,44.36Zm-1.68,2.86a.13.13,0,0,0,0-.12l-.18-.09-.5-.11c0,.27.05.53.08.79l.07,0C313.77,47.56,314,47.4,314.12,47.22Zm-2.9-.56a2,2,0,0,0,.74-1.54l-2.2.05A6.26,6.26,0,0,0,311.22,46.66Zm-.69,2.13a3.14,3.14,0,0,0-1-.86c-.31.23-.32.62-.45,1A2.54,2.54,0,0,0,310.53,48.79Zm-3.32-.22s0-.15,0-.21c-.17-.35-.32-.71-.52-1-.06-.11-.22-.17-.32-.24a.35.35,0,0,0-.12,0c-.21.17-.43.34-.63.53s-.12.26.05.39a.64.64,0,0,0,.18.1l1.14.45A.22.22,0,0,0,307.21,48.57Zm-.4-3.32c.08-.08.05-.14-.07-.19a1.17,1.17,0,0,1-.36-.21c-.3-.35-.75-.4-1.13-.6a.12.12,0,0,0-.08,0c-.22,0-.23,0-.18.2s.12.5.19.75a1.77,1.77,0,0,0,.46.85.22.22,0,0,0,.21,0,4.36,4.36,0,0,0,.55-.41A5.14,5.14,0,0,0,306.81,45.25Z"/><path d="M315.25,42.53s0,0,0,.06c0,.22-.19.47-.35.47a.42.42,0,0,1-.46-.47c0-.13-.07-.28.08-.39a.43.43,0,0,1,.5-.07C315.14,42.19,315.18,42.39,315.25,42.53Zm-.07.08a.38.38,0,0,0-.33-.42c-.24,0-.31.07-.32.32s.13.47.34.47A.4.4,0,0,0,315.18,42.61Z"/><path class="cls-4" d="M314.85,42.19a.38.38,0,0,1,.33.42.4.4,0,0,1-.31.37c-.21,0-.34-.18-.34-.47S314.61,42.19,314.85,42.19Z"/><path d="M314.44,37.63a12.85,12.85,0,0,1,0,1.64,5.36,5.36,0,0,1-.19,1.2,4.19,4.19,0,0,1-.49,1.08,9.18,9.18,0,0,1-1.12,1.21,3.15,3.15,0,0,1-1.73.85,7,7,0,0,1-1.2.15,14.13,14.13,0,0,1-1.46-.11,3.14,3.14,0,0,1-1.07-.49,4.1,4.1,0,0,1-.41-.22,3.42,3.42,0,0,1-.93-1l-.61-.88a2.94,2.94,0,0,1-.43-1.07,7,7,0,0,1-.19-.76,4.64,4.64,0,0,1,.18-1.85,5.16,5.16,0,0,1,.28-.78,13.73,13.73,0,0,1,.85-1.72,7,7,0,0,1,1-1.11,2.12,2.12,0,0,1,.38-.29,3.54,3.54,0,0,1,1.12-.42c.2-.05.4-.07.59-.1h.69a4.32,4.32,0,0,1,1.51.26,5.52,5.52,0,0,1,.72.38c.29.16.58.31.86.49a1.25,1.25,0,0,1,.24.27c.12.16.26.29.37.45a6.19,6.19,0,0,1,.58.95A5.73,5.73,0,0,1,314.44,37.63Zm-.07.57a5.92,5.92,0,0,0-.32-2,3.77,3.77,0,0,0-.77-1.4,3.79,3.79,0,0,1-.32-.38.77.77,0,0,0-.66-.33h-.24c-.42,0-.84,0-1.26,0s-.56.06-.81.09c-.07,0-.1,0-.12,0-.63.16-1.27.29-1.89.48a7.13,7.13,0,0,0-1.07.45,3,3,0,0,0-1.26,1.12c-.15.24-.33.47-.47.72a3.5,3.5,0,0,0-.46.93,4.51,4.51,0,0,0-.05,1.22,6.7,6.7,0,0,0,.19.74,3,3,0,0,0,.4,1l.62.94a2.77,2.77,0,0,0,.86.91c.23.14.45.29.69.42a3.58,3.58,0,0,0,.64.26,3.31,3.31,0,0,0,.63.1,7.77,7.77,0,0,0,1,.08,5,5,0,0,0,.67-.05,3.66,3.66,0,0,0,1.88-.65,9.61,9.61,0,0,0,1.3-1.25,3.42,3.42,0,0,0,.74-1.75A14.89,14.89,0,0,0,314.37,38.2Zm-3-4.18h1.08a.38.38,0,0,0-.13-.08,4.59,4.59,0,0,1-.73-.38,2.73,2.73,0,0,0-1-.41,4.32,4.32,0,0,0-1.48-.1,4.85,4.85,0,0,1-.55.08,2.49,2.49,0,0,0-1.27.44,7.76,7.76,0,0,0-1.13,1.09,4.49,4.49,0,0,0-.79,1.61.55.55,0,0,0,0,.18h.06l.19-.26a3.71,3.71,0,0,1,1.13-1,5.29,5.29,0,0,1,1.39-.57c.4-.08.78-.22,1.18-.32a3,3,0,0,1,.52-.1l1.43-.16Z"/><path class="cls-6" d="M314.05,36.24a5.92,5.92,0,0,1,.32,2,14.89,14.89,0,0,1-.12,1.77,3.42,3.42,0,0,1-.74,1.75,9.61,9.61,0,0,1-1.3,1.25,3.66,3.66,0,0,1-1.88.65,5,5,0,0,1-.67.05,7.77,7.77,0,0,1-1-.08,3.31,3.31,0,0,1-.63-.1,3.58,3.58,0,0,1-.64-.26c-.24-.13-.46-.28-.69-.42a2.77,2.77,0,0,1-.86-.91l-.62-.94a3,3,0,0,1-.4-1,6.7,6.7,0,0,1-.19-.74,4.51,4.51,0,0,1,.05-1.22,3.5,3.5,0,0,1,.46-.93c.14-.25.32-.48.47-.72a3,3,0,0,1,1.26-1.12,7.13,7.13,0,0,1,1.07-.45c.62-.19,1.26-.32,1.89-.48,0,0,.05,0,.12,0,.25,0,.53-.08.81-.09s.84,0,1.26,0h.24a.77.77,0,0,1,.66.33,3.79,3.79,0,0,0,.32.38A3.77,3.77,0,0,1,314.05,36.24ZM311.44,38A1.44,1.44,0,0,0,311,36.8a2.37,2.37,0,0,0-1.24-.72c-.18,0-.33-.12-.48.05,0,0-.07,0-.11,0a1.42,1.42,0,0,0-.22,0,3.38,3.38,0,0,0-1.35,1.3,2.85,2.85,0,0,0-.28.79,2,2,0,0,0,.11,1.16.68.68,0,0,0,.12.3,2.77,2.77,0,0,0,.94.86,2.59,2.59,0,0,1,.29.14.87.87,0,0,0,.87,0,2.86,2.86,0,0,0,.88-.58,1.7,1.7,0,0,1,.31-.29,1.74,1.74,0,0,0,.6-1.18A4.31,4.31,0,0,0,311.44,38Z"/><path d="M314.12,47.1a.13.13,0,0,1,0,.12c-.17.18-.35.34-.53.51l-.07,0c0-.26-.06-.52-.08-.79l.5.11Zm-.49.5c.14-.16.39-.21.44-.47l-.55-.09.06.56Z"/><path class="cls-6" d="M314.07,47.13c-.05.26-.3.31-.44.47h-.05l-.06-.56Z"/><path class="cls-2" d="M312.49,34h-1.23l-1.43.16a3,3,0,0,0-.52.1c-.4.1-.78.24-1.18.32a5.29,5.29,0,0,0-1.39.57,3.71,3.71,0,0,0-1.13,1l-.19.26h-.06a.55.55,0,0,1,0-.18,4.49,4.49,0,0,1,.79-1.61,7.76,7.76,0,0,1,1.13-1.09,2.49,2.49,0,0,1,1.27-.44,4.85,4.85,0,0,0,.55-.08,4.32,4.32,0,0,1,1.48.1,2.73,2.73,0,0,1,1,.41,4.59,4.59,0,0,0,.73.38A.38.38,0,0,1,312.49,34Z"/><path d="M312,45.12a2,2,0,0,1-.74,1.54,6.26,6.26,0,0,1-1.46-1.49Zm-.11.11h-2a3.07,3.07,0,0,0,.27.36c.27.26.55.51.84.77s.27.16.43,0a.18.18,0,0,0,.07-.1,5,5,0,0,0,.31-.66A1.46,1.46,0,0,0,311.85,45.23Z"/><path class="cls-6" d="M309.88,45.23h2a1.46,1.46,0,0,1-.05.4,5,5,0,0,1-.31.66.18.18,0,0,1-.07.1c-.16.13-.26.12-.43,0s-.57-.51-.84-.77A3.07,3.07,0,0,1,309.88,45.23Z"/><path d="M311,36.8a1.44,1.44,0,0,1,.45,1.17,4.31,4.31,0,0,1,0,.72,1.74,1.74,0,0,1-.6,1.18,1.7,1.7,0,0,0-.31.29,2.86,2.86,0,0,1-.88.58.87.87,0,0,1-.87,0,2.59,2.59,0,0,0-.29-.14,2.77,2.77,0,0,1-.94-.86.68.68,0,0,1-.12-.3,2,2,0,0,1-.11-1.16,2.85,2.85,0,0,1,.28-.79,3.38,3.38,0,0,1,1.35-1.3,1.42,1.42,0,0,1,.22,0s.09,0,.11,0c.15-.17.3-.1.48-.05A2.37,2.37,0,0,1,311,36.8Zm.34,1.05c.11-.1.05-.19,0-.27a5.54,5.54,0,0,0-.3-.53,1.79,1.79,0,0,0-1-.79.58.58,0,0,1-.21-.07.36.36,0,0,0-.43,0s-.1,0-.15,0v0h-.07l-.07,0a3.13,3.13,0,0,0-1.18.92,2.22,2.22,0,0,0-.45.91,1.8,1.8,0,0,0-.1.72,1.93,1.93,0,0,0,.5,1.17c.21.17.35.43.63.51a1,1,0,0,1,.19.12,1,1,0,0,0,.82.11,3,3,0,0,0,.76-.43,5.8,5.8,0,0,0,.52-.48,1.78,1.78,0,0,0,.53-.94,4.68,4.68,0,0,0,0-.84C311.36,38,311.31,37.88,311.33,37.85Z"/><path class="cls-5" d="M311.34,37.58c0,.08.1.17,0,.27s0,.12,0,.17a4.68,4.68,0,0,1,0,.84,1.78,1.78,0,0,1-.53.94,5.8,5.8,0,0,1-.52.48,3,3,0,0,1-.76.43,1,1,0,0,1-.82-.11,1,1,0,0,0-.19-.12c-.28-.08-.42-.34-.63-.51a1.93,1.93,0,0,1-.5-1.17,1.8,1.8,0,0,1,.1-.72,2.22,2.22,0,0,1,.45-.91,3.13,3.13,0,0,1,1.18-.92l.07,0h.07v0s.11,0,.15,0a.36.36,0,0,1,.43,0,.58.58,0,0,0,.21.07,1.79,1.79,0,0,1,1,.79A5.54,5.54,0,0,1,311.34,37.58Zm-2,0c0-.08-.06-.24-.11-.35a.41.41,0,0,0-.41-.26.76.76,0,0,0-.66.66c0,.46.33.66.59.6S309.26,37.9,309.38,37.62Z"/><path d="M309.51,47.93a3.14,3.14,0,0,1,1,.86,2.54,2.54,0,0,1-1.47.1C309.19,48.55,309.2,48.16,309.51,47.93Zm.93.78c-.22-.17-.41-.32-.61-.45a1.08,1.08,0,0,0-.18-.11c-.15-.12-.2-.12-.27.06s-.15.4-.23.62A2.14,2.14,0,0,0,310.44,48.71Z"/><path class="cls-6" d="M309.83,48.26c.2.13.39.28.61.45a2.14,2.14,0,0,1-1.29.12c.08-.22.14-.43.23-.62s.12-.18.27-.06A1.08,1.08,0,0,1,309.83,48.26Z"/><path d="M309.27,37.27c.05.11.15.27.11.35-.12.28-.25.58-.59.65s-.59-.14-.59-.6a.76.76,0,0,1,.66-.66A.41.41,0,0,1,309.27,37.27Zm-.09.55a.47.47,0,0,0-.27-.71.58.58,0,0,0-.61.59s0,.09,0,.14a.35.35,0,0,0,.56.27A1.18,1.18,0,0,0,309.18,37.82Z"/><path class="cls-6" d="M308.91,37.11a.47.47,0,0,1,.27.71,1.18,1.18,0,0,1-.3.29.35.35,0,0,1-.56-.27c0-.05,0-.11,0-.14A.58.58,0,0,1,308.91,37.11Z"/><path d="M307.22,48.36c0,.06,0,.17,0,.21a.22.22,0,0,1-.21,0l-1.14-.45a.64.64,0,0,1-.18-.1c-.17-.13-.19-.24-.05-.39s.42-.36.63-.53a.35.35,0,0,1,.12,0c.1.07.26.13.32.24C306.9,47.65,307.05,48,307.22,48.36Zm-.16.17s.06,0,.14,0c-.2-.42-.39-.81-.59-1.21a.22.22,0,0,0-.15-.08s-.1.05-.11,0-.14,0-.2,0l-.44.4c-.12.12-.1.22.05.29a3.48,3.48,0,0,0,.43.22Z"/><path d="M307.18,22.55s0,0,0,0a3.28,3.28,0,0,1-.31.2,1.13,1.13,0,0,0-.43.58,2.73,2.73,0,0,0-.21,1.1,1.72,1.72,0,0,1-.11.5.22.22,0,0,1-.37.08,1,1,0,0,0-.91-.11,1.56,1.56,0,0,0-.84,1.23,6.48,6.48,0,0,1-.23,1,2.61,2.61,0,0,1-.43.63l-.62.78a4,4,0,0,0-.32.52.27.27,0,0,0,0,.23,1.53,1.53,0,0,1,.14,1.11c-.06.3-.09.6-.17.89-.15.46-.32.92-.5,1.37a4.55,4.55,0,0,1-.32.49c-.13.21-.25.44-.38.66a1.87,1.87,0,0,1-.75.7c-.36.18-.72.34-1.09.5-.09,0-.11.1-.13.2-.08.35-.17.69-.27,1a4.35,4.35,0,0,1-.25.59.72.72,0,0,1-.2.23c-.4.41-.81.8-1.21,1.22s-.54.58-.82.87h0c.23-.28.45-.57.69-.84s.55-.57.82-.85.34-.29.48-.45a2,2,0,0,0,.27-.44,10.45,10.45,0,0,0,.4-1.06,1.56,1.56,0,0,0,0-.48h0a.42.42,0,0,0,.12,0c.36-.17.7-.38,1.06-.52a1.26,1.26,0,0,0,.67-.5c.34-.53.66-1.06,1-1.6a3,3,0,0,0,.22-.62c.1-.33.21-.67.28-1a2.2,2.2,0,0,0,.07-1,1.06,1.06,0,0,0-.26-.53,6.78,6.78,0,0,0-.86-.41,2.84,2.84,0,0,1-1-.85c-.27-.37-.55-.73-.81-1.1s-.63-.84-.91-1.29a3,3,0,0,0-1.33-1.24.66.66,0,0,0-.82.18,3.3,3.3,0,0,0-.47.84,3.51,3.51,0,0,0-.18,1.29c0,.51.05,1,.09,1.54,0,.35,0,.69.1,1a5.86,5.86,0,0,0,.5,1.83c.18.36.35.71.52,1.07a8.22,8.22,0,0,0,1.14,1.71c.3.36.58.73.87,1.11,0,0,0,.08,0,.12h0c-.35-.43-.68-.87-1-1.3a9.54,9.54,0,0,1-1.22-1.87,11.26,11.26,0,0,1-.67-1.6,7.48,7.48,0,0,1-.2-1.15c0-.26-.06-.52-.08-.78-.05-.57-.11-1.13-.13-1.69a4,4,0,0,1,.42-1.83,1.19,1.19,0,0,1,.58-.61.7.7,0,0,1,.43,0,2.06,2.06,0,0,1,1,.58,6.65,6.65,0,0,1,1,1.48c.09.14.21.26.31.39.32.44.64.89,1,1.32a2.39,2.39,0,0,0,.49.46,3.21,3.21,0,0,0,.5.31c.2.12.42.22.62.33s.24,0,.34-.11c.27-.41.57-.8.86-1.2.16-.22.34-.43.49-.67a.85.85,0,0,0,.09-.32A7,7,0,0,1,304,26a1.49,1.49,0,0,1,1-1.15.76.76,0,0,1,.75.08.48.48,0,0,0,.22.12.17.17,0,0,0,.15-.05,1.28,1.28,0,0,0,.11-.33c0-.28,0-.56.07-.83a1.68,1.68,0,0,1,.7-1.18A2.5,2.5,0,0,1,307.18,22.55Z"/><path class="cls-6" d="M307.2,48.52c-.08,0-.11,0-.14,0l-.87-.34a3.48,3.48,0,0,1-.43-.22c-.15-.07-.17-.17-.05-.29l.44-.4c.06-.05.12-.12.2,0s.08-.05.11,0a.22.22,0,0,1,.15.08C306.81,47.71,307,48.1,307.2,48.52Z"/><path d="M306.74,45.06c.12,0,.15.11.07.19a5.14,5.14,0,0,1-.41.4,4.36,4.36,0,0,1-.55.41.22.22,0,0,1-.21,0,1.77,1.77,0,0,1-.46-.85c-.07-.25-.13-.5-.19-.75s0-.2.18-.2a.12.12,0,0,1,.08,0c.38.2.83.25,1.13.6A1.17,1.17,0,0,0,306.74,45.06Zm-.05.13a3.72,3.72,0,0,0-1.64-.87,3.1,3.1,0,0,0,.7,1.71A2.47,2.47,0,0,0,306.69,45.19Z"/><path class="cls-3" d="M306.15,61.22a2.89,2.89,0,0,1,.35.35l-.72.11a11,11,0,0,1-1.26.19c-.41,0-.82,0-1.23,0-.22,0-.43,0-.64,0s-.71-.05-1-.11a6.19,6.19,0,0,1-1.69-.49c-.34-.17-.69-.29-1-.45a.35.35,0,0,1-.22-.35c0-.22-.08-.43-.08-.65a2.78,2.78,0,0,1,.26-1.23c.2-.39.17-.39.49-.1a2.15,2.15,0,0,0,.88.53,2.58,2.58,0,0,1,.84.35,1.9,1.9,0,0,0,.58.2c.26.05.53.06.79.12a5.22,5.22,0,0,1,1.28.43,6.15,6.15,0,0,0,1,.38,2.17,2.17,0,0,1,.8.41C305.71,61,305.94,61.07,306.15,61.22Z"/><path class="cls-6" d="M305.05,44.32a3.72,3.72,0,0,1,1.64.87,2.47,2.47,0,0,1-.94.84A3.1,3.1,0,0,1,305.05,44.32Z"/><path d="M304.27,41.94c0,.29-.1.49-.33.56a.48.48,0,0,1-.37-.08,1.1,1.1,0,0,1-.24-.42.41.41,0,0,1,.25-.51.39.39,0,0,1,.48.13A2.85,2.85,0,0,1,304.27,41.94Zm-.47.49a.4.4,0,0,0,.39-.41.56.56,0,0,0-.45-.48.37.37,0,0,0-.34.35A.56.56,0,0,0,303.8,42.43Z"/><path class="cls-4" d="M304.19,42a.4.4,0,0,1-.39.41.56.56,0,0,1-.4-.54.37.37,0,0,1,.34-.35A.56.56,0,0,1,304.19,42Z"/><path d="M303.25,40.82a.57.57,0,0,1-.22.52.6.6,0,0,1-.71,0,1.16,1.16,0,0,1-.32-.62.58.58,0,0,1,.37-.64C302.83,39.92,303.22,40.24,303.25,40.82Zm-.19.36a.76.76,0,0,0-.17-1,.45.45,0,0,0-.57,0c-.13.07-.2.24-.27.33a1.15,1.15,0,0,0,.39.78C302.69,41.45,302.93,41.42,303.06,41.18Z"/><path class="cls-4" d="M302.89,40.19a.76.76,0,0,1,.17,1c-.13.24-.37.27-.62.1a1.15,1.15,0,0,1-.39-.78c.07-.09.14-.26.27-.33A.45.45,0,0,1,302.89,40.19Z"/><path d="M302.47,42a.66.66,0,0,1,.31.56.59.59,0,0,1-.17.43,2.82,2.82,0,0,1-.29.18.74.74,0,0,1-.52-.44.52.52,0,0,1,.13-.6A.48.48,0,0,1,302.47,42Zm-.15,1a.48.48,0,0,0,.37-.46c0-.33-.18-.53-.44-.52a.44.44,0,0,0-.41.46A.58.58,0,0,0,302.32,43.08Z"/><path class="cls-4" d="M302.69,42.62a.48.48,0,0,1-.37.46.58.58,0,0,1-.48-.52.44.44,0,0,1,.41-.46C302.51,42.09,302.68,42.29,302.69,42.62Z"/><path class="cls-3" d="M302.46,29.75a2.2,2.2,0,0,1-.07,1c-.07.34-.18.68-.28,1a3,3,0,0,1-.22.62c-.31.54-.63,1.07-1,1.6a1.26,1.26,0,0,1-.67.5c-.36.14-.7.35-1.06.52a.42.42,0,0,1-.12,0s0-.09,0-.12c-.29-.38-.57-.75-.87-1.11A8.22,8.22,0,0,1,297,32.11c-.17-.36-.34-.71-.52-1.07a5.86,5.86,0,0,1-.5-1.83c-.05-.34-.08-.68-.1-1,0-.51-.07-1-.09-1.54a3.51,3.51,0,0,1,.18-1.29,3.3,3.3,0,0,1,.47-.84.66.66,0,0,1,.82-.18,3,3,0,0,1,1.33,1.24c.28.45.6.87.91,1.29s.54.73.81,1.1a2.84,2.84,0,0,0,1,.85,6.78,6.78,0,0,1,.86.41A1.06,1.06,0,0,1,302.46,29.75Z"/><polygon class="cls-6" points="299.07 35.05 299.07 35.06 299.07 35.05 299.07 35.05"/><polygon class="cls-6" points="299.07 35.05 299.07 35.06 299.07 35.05 299.07 35.05"/><path class="cls-3" d="M297.2,49.7c0,.11,0,.23,0,.33H297a1.4,1.4,0,0,1-1.23-.42,5.43,5.43,0,0,1-.72-.88,2.43,2.43,0,0,1-.21-.71.93.93,0,0,1,0-.23l.66.05.95.07c.14,0,.31,0,.42,0s.11.23.14.37.08.53.12.79S297.17,49.5,297.2,49.7Z"/></g></g></svg>